<?xml version="1.0" encoding="UTF-8"?>
<svg id="Layer_2" data-name="Layer 2" xmlns="http://www.w3.org/2000/svg" viewBox="0 0 248.12 138.93">
  <g id="Layer_2-2" data-name="Layer 2">
    <g>
      <path d="m122.99,0c49.6,1.17,89.6,20.52,120.08,59.12,5,6.4,4.93,14.43-.33,21.17-20,25.62-45.31,43.81-76.67,52.37-51.3,14-98.27,4.7-139.58-29.27-8.35-6.87-15.4-15.4-22.55-23.6-5.36-6.13-5.11-14.1-.11-20.55C27.83,28.23,59.16,9.27,97.83,2.38c2.54-.45,5.1-.94,7.67-1.16,5.98-.5,12.02-.85,17.49-1.22Zm107.27,69.42c-56.59-73.56-164.14-67.27-213.39.06,51.11,69.52,159.7,71.71,213.39-.06h0Z"/>
      <path d="m171.5,69.92c-.12,26.55-21.76,47.69-48.63,47.51-26.53-.18-47.68-21.84-47.53-48.65.12-25.85,22.31-47.58,48.4-47.38,26.57.26,47.92,21.95,47.76,48.52Zm-16.41-.29c-.07-17.77-14.34-32.06-31.82-31.86s-31.7,14.55-31.5,31.58c.21,18,14.08,31.8,31.88,31.75,17.37-.01,31.45-14.1,31.44-31.47Z"/>
      <rect x="-8.56" y="60.35" width="265.79" height="20.17" transform="translate(-18.31 61.88) rotate(-26.1)"/>
    </g>
  </g>
</svg>