<svg id="Layer_1" data-name="Layer 1" xmlns="http://www.w3.org/2000/svg" viewBox="0 0 201.69 264.96">
    <title>Inventory</title>
    <path
        d="M123.08,92.76c.07-1.34.15-2.09.16-2.84.11-7.89,1-8.8,9.06-8.8,6.38,0,12.75-.06,19.13,0a3.66,3.66,0,0,0,3.76-2.23c5-8.91,12.2-14.28,22.7-15.49a28.68,28.68,0,0,1,29,15,4.26,4.26,0,0,0,4.53,2.67c6.7-.12,13.4,0,20.1,0,5.84,0,7.2,1.39,7.2,7.27v4.18c1.4.07,2.55.18,3.69.18h32.42c6,0,7.31,1.33,7.31,7.49q0,22.2,0,44.42,0,87.86,0,175.72c0,6.58-1.2,7.81-7.64,7.81H87.08c-5.39,0-6.65-1.26-6.65-6.66V99.45c0-5.73,1-6.69,6.79-6.69h35.86ZM89,319.48H273.46v-218H238.7c0,1.3,0,2.35,0,3.41.3,6.93-1.12,7.45-7.84,8-.64,0-1.29,0-1.94,0q-47.84,0-95.65,0a32.66,32.66,0,0,1-5.12-.51c-3.57-.56-4.81-2-4.91-5.53,0-1.78,0-3.56,0-5.31H89ZM131.68,89.67c0,3.72.19,7.17-.06,10.58s.86,4.25,4.17,4.24c30.27-.12,60.53-.07,90.79-.08,1.15,0,2.29-.11,3.45-.16V89.67Zm31.84-8.58H199c-5.42-7-11.6-10.49-19.68-9.7C172.56,72,167.16,75.05,163.52,81.09Z"
        transform="translate(-80.43 -63.23)" />
    <path
        d="M166.05,269.86c0,6.16,0,12.32,0,18.48,0,3.35-1.74,5.42-5,5.44-12.64.08-25.28.06-37.92,0-2.83,0-4.44-1.54-4.45-4.43,0-13,0-25.92,0-38.89,0-3.25,2.15-4.5,4.79-4.53q18.64-.19,37.28,0c3.83,0,5.29,1.91,5.29,5.77Q166.07,260.78,166.05,269.86Zm-8.57-15.36c-1-.09-1.72-.22-2.46-.22-8.32,0-16.64.09-25-.06-2.57-.05-3,.92-3,3.22.11,8.32,0,16.64.06,25,0,.92.16,1.85.24,2.77h30.13Z"
        transform="translate(-80.43 -63.23)" />
    <path
        d="M118.69,215.14c0-6.37,0-12.75,0-19.12,0-3.44,1.23-4.66,4.68-4.67q19,0,37.91,0c3.32,0,4.73,1.32,4.74,4.69q.09,18.94,0,37.9c0,3.28-1.48,4.73-4.78,4.75q-18.94.06-37.9,0c-3.34,0-4.65-1.43-4.66-4.75C118.68,227.66,118.69,221.4,118.69,215.14Zm8.4-.44c0,4.21.1,8.42,0,12.62-.06,2.17.52,3.05,2.87,3,8.31-.13,16.61-.1,24.92,0,2,0,2.89-.48,2.86-2.7-.11-8.41-.09-16.82,0-25.24,0-1.87-.47-2.71-2.53-2.69q-12.78.13-25.56,0c-2.07,0-2.57.84-2.52,2.71C127.16,206.5,127.09,210.6,127.09,214.7Z"
        transform="translate(-80.43 -63.23)" />
    <path
        d="M142.32,183.6c-6.26,0-12.53,0-18.8,0-3.64,0-4.81-1.2-4.82-4.86q0-18.81,0-37.6c0-3.48,1.33-4.88,4.87-4.89q18.8-.08,37.6,0c3.45,0,4.86,1.47,4.87,5q0,19,0,37.92c0,3.17-1.32,4.42-4.59,4.44C155.07,183.63,148.7,183.6,142.32,183.6Zm15.33-38.66H127.1c0,9.79,0,19.29.09,28.78a2.92,2.92,0,0,0,2.06,1.95q13.13.2,26.24,0a2.9,2.9,0,0,0,2.06-1.94C157.69,164.23,157.65,154.74,157.65,144.94Z"
        transform="translate(-80.43 -63.23)" />
    <path
        d="M209.85,254.27H181c-3.6,0-5.16-1.12-5.27-3.75-.12-3,1.54-4.56,5.27-4.62,5.93-.08,11.87,0,17.8,0h36.91c.64,0,1.29,0,1.94,0,3.73.11,6.09,1.78,6.16,4.38s-1.92,4-6.16,4Z"
        transform="translate(-80.43 -63.23)" />
    <path
        d="M209.84,136.22h28.52c3.06,0,5.52,2,5.45,4.3s-2.4,4.11-5.38,4.11q-28.85,0-57.7,0c-3.34,0-5-1.45-5-4.16s1.62-4.23,5.22-4.24C190.6,136.2,200.22,136.22,209.84,136.22Z"
        transform="translate(-80.43 -63.23)" />
    <path
        d="M209.78,191.34c9.5,0,19,0,28.51,0,2.78,0,5.05.57,5.52,3.68.37,2.45-2.08,4.61-5.46,4.7-5.07.13-10.15,0-15.23,0-13.28,0-26.57,0-39.86,0a23.06,23.06,0,0,1-4.45-.56c-2.5-.5-3.35-2.28-3-4.58s1.86-3.25,4.13-3.24Q194.87,191.37,209.78,191.34Z"
        transform="translate(-80.43 -63.23)" />
    <path
        d="M203.14,164.11c-7.56,0-15.12,0-22.67,0-3.17,0-4.75-1.37-4.69-4,.07-2.91,1.72-4.36,4.52-4.36q22.66-.06,45.34,0c3.22,0,4.8,1.65,4.64,4.47-.17,3-2,4-4.8,3.93C218,164.07,210.58,164.11,203.14,164.11Z"
        transform="translate(-80.43 -63.23)" />
    <path
        d="M203,210.81h22c3.73,0,5.22,1.19,5.25,4.13s-1.51,4.21-5.22,4.26c-7.45.09-14.9,0-22.34,0-7.23,0-14.46,0-21.69,0-3.62,0-5.26-1.36-5.27-4.19s1.61-4.2,5.24-4.21C188.34,210.79,195.68,210.81,203,210.81Z"
        transform="translate(-80.43 -63.23)" />
    <path
        d="M203,265.92c7.45,0,14.9,0,22.35,0,3.43,0,5,1.36,4.91,4.11-.12,3.22-2.22,3.75-4.89,3.74-14.91,0-29.81,0-44.71,0-3.67,0-5-1.12-4.89-4,.16-3.07,2.14-3.86,4.88-3.84C188.12,266,195.57,265.92,203,265.92Z"
        transform="translate(-80.43 -63.23)" />
    <path
        d="M137.39,271c3.52-3.56,6.9-7,10.32-10.43,2.16-2.16,5-2.51,6.53-.87s1.11,4.84-.72,6.7c-4.45,4.5-8.94,9-13.4,13.45-2,2-3.91,2-5.85,0-.9-.93-1.84-1.82-2.75-2.74-2.75-2.79-3.1-4.56-1.32-6.68C131.8,268.53,134.22,268.64,137.39,271Z"
        transform="translate(-80.43 -63.23)" />
    <path
        d="M136.66,214.65q5-4.07,10.06-8.16c.66-.54,1.19-1.25,1.88-1.77,1.86-1.39,4.32-1.76,5.47.11.88,1.44.94,4.57,0,5.76-4.19,5-8.87,9.61-13.45,14.28-2,2.06-4.21,1.89-6.26-.08-1.16-1.12-2.31-2.27-3.44-3.42-1.67-1.69-2.6-3.61-.85-5.7s3.87-2.08,6.06-.64c.44.29.86.6,1.29.9Z"
        transform="translate(-80.43 -63.23)" />
    <path
        d="M155.58,153.11a22,22,0,0,1-2.42,4c-4.09,4.28-8.32,8.43-12.49,12.65-2,2.06-4,2.15-6.19.16-1.26-1.17-2.69-2.15-3.89-3.37-1.59-1.62-2.07-3.5-.58-5.51a3.89,3.89,0,0,1,5.47-1c2,1.25,2.89.33,4.07-.88a118.69,118.69,0,0,1,9-8.83c1.13-.94,3.41-1,5-.67C154.36,149.85,154.83,151.77,155.58,153.11Z"
        transform="translate(-80.43 -63.23)" />
</svg>