<?xml version="1.0" encoding="UTF-8"?>
<svg id="Layer_2" data-name="Layer 2" xmlns="http://www.w3.org/2000/svg" viewBox="0 0 469.26 472.8">
  <defs>
    <style>
      .cls-1 {
      }
    </style>
  </defs>
  <g id="Layer_1-2" data-name="Layer 1">
    <g>
      <path class="cls-1"
        d="m2.66,11.23c18.62,9.02,35.82,17.34,53.02,25.68,33.69,16.36,67.35,32.79,101.08,49.06,14.85,7.16,22.09,18.49,22.06,35.26-.19,114.19-.1,228.37-.1,342.56,0,9.15-2.96,11.02-11.2,7.02-47.45-23.07-94.87-46.22-142.37-69.21C8.41,393.48.11,379.99.09,361.75-.05,249.89-.01,138.04.12,26.19c0-4.66,1.55-9.32,2.54-14.96Zm112.99,243.92c0,9.49,0,18.98,0,28.46,0,.33,0,.67,0,1,.34,10.5,10.83,18.25,20.95,15.47,8.14-2.23,12.83-8.99,12.89-19.07.1-17.14.04-34.29,0-51.43,0-1.81-.28-3.65-.62-5.44-1.7-8.97-9.13-14.78-17.78-13.99-9.16.84-15.38,7.64-15.44,17.03-.06,9.32-.01,18.64-.01,27.96Z" />
      <path class="cls-1"
        d="m412.08,226.87c-2.24-.11-3.65-.24-5.07-.24-48.67-.01-97.34-.03-146.01,0-11.57,0-18.89,7.31-18.42,18.17.33,7.57,6.56,14.61,14.58,15.25,8.12.65,16.31.34,24.47.47.82.01,1.64.15,3.07.28.1,1.75.28,3.51.28,5.26.02,30.34.05,60.68,0,91.02-.03,16.94-9.36,26.27-26.27,26.36-13.67.07-27.34.02-41,0-1.46,0-2.92-.17-4.92-.29,0-2.37,0-4.49,0-6.61,0-85.19.04-170.38-.03-255.57-.02-19.61-5.79-37.3-20.36-50.91-6.1-5.7-13.44-10.48-20.95-14.2C135.51,38.06,99.33,20.73,63.24,3.21c-1.57-.76-3.08-1.65-5.97-3.2,2.65,0,3.75,0,4.84,0C127.46,0,192.8.02,258.14,0c9.28,0,17.41,2.26,22.97,10.49,3.36,4.97,3.9,10.46,3.9,16.21-.03,53.35-.02,106.7-.02,160.04,0,2.12,0,4.25,0,6.67h127.13c-1.65-1.83-2.76-3.16-3.98-4.38-13.56-13.55-27.19-27.03-40.7-40.63-5.84-5.88-6.8-13.48-2.88-20.11,3.92-6.63,11.25-9.74,18.91-7.42,2.73.83,5.46,2.61,7.51,4.64,24.37,24.19,48.65,48.48,72.88,72.81,7.26,7.29,7.19,16.57-.16,23.93-24.13,24.19-48.31,48.35-72.54,72.45-7.36,7.32-17.15,7.48-24.07.67-6.8-6.68-6.6-16.57.83-24.08,13.24-13.4,26.66-26.62,39.98-39.93,1.25-1.24,2.4-2.58,4.17-4.49Z" />
    </g>
  </g>
</svg>