<svg id="Layer_1" data-name="Layer 1" xmlns="http://www.w3.org/2000/svg" viewBox="0 0 247.15 246.67">
    <title>Product</title>
    <path
        d="M118.05,227.86c0-10.27-.06-20.54,0-30.8a4.46,4.46,0,0,0-2.68-4.54c-18-10.18-36-20.53-54-30.76a5.53,5.53,0,0,1-3.16-5.43q.12-32.91,0-65.82a5.75,5.75,0,0,1,3.22-5.72C74.28,77.58,87,70.28,99.74,63l19.12-10.87a5.47,5.47,0,0,1,6,.16q27.21,15.63,54.61,30.94a4.75,4.75,0,0,0,4,.18C201.77,73.1,220,62.57,238.32,52.3a7.23,7.23,0,0,1,6-.07C259,60.36,273.58,68.77,288.2,77.1c4.5,2.56,9,5.14,13.53,7.62,2.06,1.12,3.22,2.5,3.23,5.06.09,15.87.4,31.74.47,47.6,0,6.68-.19,13.38-.64,20a5.87,5.87,0,0,1-2.59,4q-27,15.68-54.18,31c-2.08,1.18-2.88,2.38-2.87,4.76.09,20.42,0,40.85.11,61.28a6,6,0,0,1-3.42,5.94q-28.71,16.26-57.32,32.7c-2.18,1.25-3.9,1.13-6.19-.21-15.65-9.12-31.42-18-47.16-27-3.46-2-6.93-3.95-10.43-5.87-2-1.11-2.75-2.7-2.73-5C118.11,248.61,118.05,238.24,118.05,227.86ZM296.4,96.62c-1.24.64-2.48,1.25-3.71,1.9-7.3,3.87-7.29,3.87-7.29,12.13,0,1.19,0,2.38,0,3.57.12,2.43-1,4-3.12,5.12-5.41,2.91-10.72,6-16,9.11-4,2.36-7.27.69-7.46-4-.07-2,0-4,0-6.54-4.08,2.32-7.45,4.43-11,6.19-2,1-2.68,2.27-2.67,4.51.1,17.6,0,35.2.06,52.8,0,1,.1,2.06.17,3.49.82-.44,1.26-.66,1.69-.91,16.1-9.16,32.23-18.27,48.26-27.57a5.53,5.53,0,0,0,2.28-4c.13-18.57.07-37.15.06-55.72Zm-178.71,88.1a20.39,20.39,0,0,0,.34-2.14c0-18.36,0-36.73-.06-55.09a4.15,4.15,0,0,0-1.86-2.9c-13.23-7.69-26.53-15.27-39.82-22.86-3.39-1.94-6.82-3.82-10.52-5.88-.11,1.14-.21,1.67-.21,2.19.18,18.46.32,36.91.66,55.36,0,1.2,1.37,2.81,2.54,3.49,11.91,7,23.91,13.76,35.9,20.58C108.82,179.84,113,182.13,117.69,184.72ZM185.8,95.91a15.91,15.91,0,0,0-.27,1.94c0,18.47-.05,36.94.07,55.41a4.49,4.49,0,0,0,2.05,3.09c9.94,5.85,19.95,11.57,30,17.29,6.43,3.67,12.89,7.28,19.33,10.91.25-.39.45-.56.45-.72,0-18.91.06-37.81,0-56.71a3.82,3.82,0,0,0-1.71-2.71C219.23,114.94,202.74,105.57,185.8,95.91ZM177.35,287.4a8,8,0,0,0,.35-1.37c0-18.69.06-37.37-.06-56.06a4.52,4.52,0,0,0-2.15-3c-11.43-6.69-22.94-13.27-34.44-19.85-4.92-2.81-9.88-5.55-14.87-8.35a4.35,4.35,0,0,0-.33.92c0,18.79-.06,37.58.06,56.37a4.61,4.61,0,0,0,2.09,3.12c3.83,2.4,7.83,4.53,11.76,6.78Zm.38-191.62c-4.23,2.45-7.89,4.47-11.41,6.69-.6.38-.85,1.64-.87,2.51-.1,3.35.14,6.71-.13,10a5.25,5.25,0,0,1-2,3.62c-5.67,3.5-11.49,6.78-17.31,10-3.83,2.15-6.49.51-6.57-4,0-2.12,0-4.23,0-7-4,2.25-7.44,4.26-10.94,6.06-2.09,1.08-2.77,2.51-2.75,4.87.1,17.61,0,35.22,0,52.82v3.42c3.73-2.12,7-4,10.21-5.82q19.92-11.4,39.8-22.86a3.85,3.85,0,0,0,1.82-2.59C177.75,134.66,177.73,115.65,177.73,95.78Zm21.41,124.63c-4.06,2.3-7.52,4.45-11.14,6.26a4,4,0,0,0-2.54,4.26c.09,17.82,0,35.65.06,53.47,0,.9.16,1.8.27,3,.74-.38,1.11-.55,1.47-.75,15.72-9,31.41-18,47.2-26.87,2.18-1.23,3.06-2.45,3-5-.11-17.39-.05-34.78-.07-52.17,0-1.1-.14-2.21-.25-3.8l-3.87,2.07c-8.23,4.43-8.23,4.43-8.23,13.62a20.34,20.34,0,0,0,0,2.59c.32,2.41-.9,3.82-2.87,4.91-5.56,3.08-11.09,6.22-16.63,9.35-3.35,1.89-6.27.31-6.45-3.57C199.05,225.52,199.14,223.29,199.14,220.41ZM70.25,88.85c.25.48.3.74.46.83Q95.64,104,120.62,118.21a2.52,2.52,0,0,0,2.08.06c4-2.19,8-4.5,12.21-6.89a10,10,0,0,0-1.2-1q-24.56-14-49.14-27.94a3.29,3.29,0,0,0-2.65-.27C78,84.26,74.12,86.59,70.25,88.85Zm119.19.24c4.57,2.64,8.28,4.8,12,6.93q18.92,10.83,37.85,21.62c.87.49,2.26,1.09,2.94.73,4.05-2.13,8-4.52,12.4-7.1-1.48-1-2.43-1.63-3.43-2.21-3.82-2.2-7.67-4.37-11.51-6.56C228.28,96,216.88,89.45,205.44,83c-1.05-.59-2.69-1.3-3.52-.88C197.91,84.09,194.07,86.45,189.44,89.09ZM129.62,191.74c17.24,9.87,34,19.45,50.72,29a2.59,2.59,0,0,0,2.12.22c4-2.22,8-4.57,12.45-7.15l-9.65-5.54q-20.49-11.72-41-23.39a3.19,3.19,0,0,0-2.62,0C137.75,187,134,189.22,129.62,191.74Zm39.75-22.93,1.58,1q24.39,14,48.79,27.91a3.39,3.39,0,0,0,2.67.41c3.68-1.94,7.25-4.1,10.94-6.23-.36-.44-.51-.77-.76-.91q-24.69-14.1-49.41-28.15a2.68,2.68,0,0,0-2.05-.35C177.42,164.36,173.78,166.41,169.37,168.81Zm3.83-79.36c-.33-.65-.37-.93-.52-1Q148,74.28,123.29,60.2a3.28,3.28,0,0,0-2.69-.1c-3.49,1.83-6.87,3.86-10.57,6a12,12,0,0,0,1.48,1.32Q135.75,81.32,160,95.18a3,3,0,0,0,2.35.33C166,93.58,169.62,91.48,173.2,89.45Zm56.17-23.18c6.06,3.48,11.48,6.6,16.9,9.7q16.41,9.41,32.83,18.77c.88.51,2.25,1.21,2.9.87,3.76-1.92,7.37-4.13,11.5-6.51-4.32-2.5-8-4.66-11.76-6.79Q262.8,71.45,243.81,60.65c-.95-.54-2.49-1.1-3.27-.71C236.9,61.76,233.44,63.92,229.37,66.27Zm-76.31,34.78.23-1c-.39-.19-.8-.36-1.18-.58q-24.42-14-48.85-28c-.52-.3-1.38-.68-1.77-.46-3.41,1.86-6.74,3.85-10.54,6.06,17.27,9.88,33.82,19.37,50.4,28.8a3,3,0,0,0,2.41.24C146.92,104.53,150,102.75,153.06,101.05Zm120.36-.51c-1.59-1-2.73-1.75-3.91-2.43q-8.13-4.67-16.29-9.3c-9.73-5.57-19.44-11.17-29.22-16.67-1-.56-2.61-1.08-3.5-.66-3.25,1.52-6.31,3.45-9.93,5.5,4.28,2.48,8,4.64,11.71,6.77,12.63,7.24,25.25,14.49,37.93,21.62a5,5,0,0,0,3.86.5C267.14,104.43,270,102.53,273.42,100.54ZM150.81,179.67c17.15,9.81,33.68,19.29,50.26,28.69a3.74,3.74,0,0,0,3,.19c3.09-1.58,6.05-3.43,9.22-5.28a11.28,11.28,0,0,0-1.26-1.16q-24.26-13.91-48.55-27.73a4.11,4.11,0,0,0-3.31-.1C157.15,175.81,154.26,177.65,150.81,179.67Zm126.32-72.31-7.8,4.45c-3.09,1.78-3.51,3.2-1.89,7a67.76,67.76,0,0,1,6.91-3.91C277.79,113.46,278.15,111.05,277.13,107.36ZM157.21,108a2.4,2.4,0,0,0-.9.11c-2.09,1.12-4.16,2.27-6.23,3.42-3.25,1.83-3.69,3.28-2.06,7.18,2-1.1,3.93-2.22,5.91-3.29C158,113.18,158.19,112.77,157.21,108Zm59.71,102.34c-2.39,1.33-4.6,2.58-6.84,3.79-3.51,1.9-3.87,2.83-2.44,7.31,2-1.11,3.83-2.34,5.84-3.21C216.88,216.72,218.1,214.36,216.92,210.29Z"
        transform="translate(-58.29 -51.32)" />
    <path d="M297.67,96.67l-1.27,0Z" transform="translate(-58.29 -51.32)" />
    <path
        d="M70.58,146.86a17.29,17.29,0,0,1,2.94.9c3.65,2.05,7.23,4.23,10.89,6.25,2.52,1.4,2.41,3.61,1.36,5.51s-3,2.42-5.26,1.1c-3.69-2.2-7.61-4-11.15-6.44-1.25-.85-2.44-3.08-2.2-4.42S69.56,147.66,70.58,146.86Z"
        transform="translate(-58.29 -51.32)" />
    <path
        d="M202.86,161.43c-1.76-.74-3.06-1.15-4.23-1.8-3.13-1.7-6.16-3.56-9.3-5.23-2.29-1.22-3.13-2.92-2.12-5.33,1.17-2.78,3.83-2.33,5.55-1.51a86.54,86.54,0,0,1,12,7.08c1,.69,1.52,2.9,1.26,4.21C205.77,159.86,204,160.55,202.86,161.43Z"
        transform="translate(-58.29 -51.32)" />
    <path
        d="M130.06,249.37a16.23,16.23,0,0,1,3.12.87c3.76,2.11,7.48,4.28,11.19,6.49,2,1.21,2.87,3,1.59,5.17s-3.27,2.59-5.52,1.32c-3.85-2.17-7.86-4.11-11.48-6.62-1.13-.78-1.68-3.11-1.58-4.68C127.44,251,129.23,250.1,130.06,249.37Z"
        transform="translate(-58.29 -51.32)" />
</svg>