<svg id="Layer_1" data-name="Layer 1" xmlns="http://www.w3.org/2000/svg" viewBox="0 0 256.38 264.49">
    <title>Report_Total Sales</title>
    <path
        d="M138.49,70.22a19.92,19.92,0,0,1,1.85,1,3.16,3.16,0,0,1,.92.9c4,6,8.78,6.36,15.54,4.09,15.75-5.28,31.88-9.41,47.79-14.2,2.95-.89,4.55-.14,4.8,2.65.58,6.45,4.28,8.66,10.31,10.23C248,82.24,276.2,90.21,304.42,98c3.87,1.06,4.11,1.44,3,5.4q-14.13,51.13-28.34,102.26c-.71,2.53-.19,4.06,1.64,5.84,8.44,8.21,16.68,16.64,25.11,24.87,2.16,2.11,2.39,3.53.11,5.8q-41.4,41.13-82.62,82.46c-2,2-3.33,2.06-5.31,0-6.86-7-13.94-13.87-20.77-20.94-1.62-1.68-3.05-1.79-5.06-1.18-9.64,2.91-19.32,5.73-29,8.58-3.74,1.11-4,1-5.11-2.88-5.79-19.64-11.54-39.29-17.42-58.9a12,12,0,0,0-2.9-4.82q-41.9-42-83.9-83.93c-3-3-3-3.37,0-6.43q21.69-21.66,43.4-43.27c1.57-1.56,2.16-2.88,1.3-5-1.06-2.68-1.71-5.52-2.55-8.29-.71-2.33-.31-3.76,2.43-4.49,7-1.88,14-4,21-6.17a10.71,10.71,0,0,0,4.06-2.36c4.23-4,8.29-8.22,12.45-12.32A27.31,27.31,0,0,1,138.49,70.22ZM301.9,239.72,138.35,75.43,57.13,156.9l163.8,164.24Zm-27.69-34.07,1.06-.64,28.4-103.1L213.07,77c1.13,4,2.11,7.4,3,10.57,1.56,0,3-.31,4.37,0,19.14,5.19,38.25,10.51,57.4,15.7,2.47.68,3.55,1.58,3.12,4.45-.69,4.61,1.25,8.45,5.55,10.3,3.12,1.33,3.45,2.82,2.6,5.86Q278.91,160.34,269,196.82a4.26,4.26,0,0,0,.37,3.17C270.83,202,272.59,203.78,274.21,205.65ZM150.29,82.1c2.18,1.78,4,2.88,5.29,4.41,1.72,2,3.34,2.23,5.83,1.42,7.43-2.42,15-4.49,22.48-6.71,2-.59,3.6-.76,4.64,1.8,2,5,6,7.16,11.36,6.47,2.62-.34,3.77.48,4.53,3.11,5.52,19.26,11.2,38.48,16.88,57.69a8.42,8.42,0,0,0,1.69,3.38c3.52,3.75,7.2,7.36,11.37,11.57a29.48,29.48,0,0,0-.5-3.19q-13.73-46.73-27.44-93.44c-.63-2.15-1.17-2.73-3.49-2-10,3.09-20.16,5.9-30.24,8.85C165.6,77.52,158.53,79.65,150.29,82.1ZM190.38,299l-43.92-44.12c4.92,16.72,10.14,34.43,15.45,52.47ZM100.1,96.76c.88,3,1.66,5.63,2.38,8.07l12.08-12.26Z"
        transform="translate(-51.62 -61.64)" />
    <path
        d="M129.17,98.38c.82.58,1.52,1.05,2.19,1.56,4.6,3.54,10,3.74,14.54,0,2.11-1.74,3.2-1.16,4.81.45q63.49,63.51,127.07,126.94c1.61,1.62,2.15,2.73.42,4.82-3.71,4.46-3.62,9.81.12,14.49,1.43,1.79,1.26,2.85-.24,4.34q-23.67,23.55-47.25,47.2c-1.53,1.53-2.63,1.61-4.36.19a10.89,10.89,0,0,0-12.94-1.18c-2,1.11-3.27.69-4.78-.82Q145.12,232.78,81.4,169.26c-1.54-1.54-1.88-2.75-.69-4.75a10.33,10.33,0,0,0-1-12.62c-1.6-1.93-1.41-3.22.3-4.93q23.49-23.28,46.87-46.67C127.55,99.62,128.33,99.07,129.17,98.38ZM181.88,236.1a33.77,33.77,0,1,0-33.94-33.86A34.09,34.09,0,0,0,181.88,236.1Z"
        transform="translate(-51.62 -61.64)" />
    <path
        d="M186.73,191.16c-1.76,1.57-3.38,2.6-4.42,4-1.41,2-.45,3.94.95,5.58,2.32,2.72,3.34,5.69,2.27,9.24-1.38,4.59-6.36,7.61-10.87,6-2.58-.92-3.95-.06-5.43,1.68-1.07,1.26-2.51,2.66-3.92.87-.46-.6.33-2.77,1.16-3.66,1.56-1.67,2.2-3,1.7-5.53-.46-2.35.64-5.13,1.5-7.56.25-.68,2.07-.8,3.17-1.18,0,1.11.43,2.45-.05,3.29-1.31,2.31-1.81,4.81.12,6.5a7.45,7.45,0,0,0,5.72,1.46c3.66-.79,4.26-5.1,1.54-8.59-3.56-4.56-3.21-9.73,1-13.15,2.49-2,5.39-2.85,8.42-1.58a3.15,3.15,0,0,0,4.35-1.15,5.44,5.44,0,0,1,2.14-1.89,2.92,2.92,0,0,1,2.45.45,2.3,2.3,0,0,1,.07,2.16c-3.8,2.4-3.13,5.82-2.79,9.48.16,1.71-.94,3.68-1.89,5.27-.4.67-1.89.7-2.88,1a28.45,28.45,0,0,1-.22-3.31c.11-2,.95-4.2.37-6C190.73,193.31,188.59,192.53,186.73,191.16Z"
        transform="translate(-51.62 -61.64)" />
</svg>