<svg id="Layer_1" data-name="Layer 1" xmlns="http://www.w3.org/2000/svg" viewBox="0 0 233.48 232.35">
    <title>Sales</title>
    <path
        d="M154.21,170h7.51c5.29,0,8.31,2.2,8.86,6.47.57,4.44-2.28,8-7.35,9a3.3,3.3,0,0,1-.95.1l20.31,19.75a26.66,26.66,0,0,0,2.15-1.84q17.67-17.62,35.31-35.29c3.68-3.68,5-3.64,8.82.07,4.14,4.08,8.31,8.11,12.07,11.77l40.7-40.67c-3.05.5-6.23,1-9.4,1.57-1.36.25-2.69.72-4.06,1-2.32.39-4.2-.45-4.73-2.8s.24-4.24,3-4.8c9.34-1.88,18.67-3.85,28-5.7a3.65,3.65,0,0,1,4.5,4.09c-.69,5.42-1.77,10.79-2.77,16.16-.73,3.9-1.62,7.77-2.4,11.66-.59,3-2.38,4.73-4.67,4.23-2.77-.61-3.46-2.76-3.05-5.22.6-3.6,1.42-7.16,2.14-10.73a6.19,6.19,0,0,0,0-3.2c-.8.74-1.63,1.46-2.41,2.23l-39.43,39.43c-4,4-5.59,4-9.6-.05s-8-8.12-12.17-12.32c-1.1,1-1.9,1.72-2.65,2.46-11.24,11.23-22.43,22.5-33.75,33.65-1.79,1.77-2.26,3.28-1.36,5.67A58.54,58.54,0,0,1,190.65,240a59.62,59.62,0,0,1-14.14,36.62c-9.95,11.86-22.78,18.68-37.84,20.93-16.66,2.49-31.75-2-45.06-12.27C81.3,275.78,74,263.18,71.1,248c-2.31-12.13-.38-23.68,4.59-34.86,5.11-11.47,13.13-20.36,24.51-27.28-4.1-.35-6.87-1.49-8.86-4.57-3-4.69,1.2-11.83,6.43-11.36a24.24,24.24,0,0,0,8.39-.7c-1.69-1-3.46-1.81-5-2.92-4.9-3.43-6.87-8.48-7-14.18a72.42,72.42,0,0,1,.72-13.5,10.64,10.64,0,0,1,9.11-8.86c6.85-.69,10.67,1.24,13.29,6.73.36.77.67,1.57,1.14,2.66,2.36-5.35,5.36-9.43,11.92-9.49s9.95,3.55,12.28,9.49c.82-1.68,1.31-2.84,1.93-3.93,2.6-4.58,7.58-6.58,13.45-5.42,3.8.75,7.78,4.73,8,9.12.36,6.18.68,12.5-.18,18.59-.87,6.26-5.73,9.75-11.71,11.56Z"
        transform="translate(-70.13 -65.87)" />
    <path
        d="M191,168.85V105.14H175.08c1.09-1.24,1.68-2,2.33-2.62,11.69-11.7,23.43-23.34,35-35.13,2-2,3.17-2,5.17,0,11.61,11.79,23.35,23.43,35,35.13.66.66,1.24,1.38,2.26,2.53h-16c-.08,1.42-.19,2.57-.19,3.71,0,8.11-.23,16.22.1,24.31.13,3.32-1.14,5.15-3.65,6.8-13.41,8.82-26.78,17.72-40.17,26.57C194,167.14,192.87,167.74,191,168.85Z"
        transform="translate(-70.13 -65.87)" />
    <path
        d="M287.5,273.74V178h15.85c.06,1,.18,2.17.18,3.3,0,29.59,0,59.18.08,88.77,0,3.1-1,3.87-3.84,3.71C295.81,273.57,291.83,273.74,287.5,273.74Z"
        transform="translate(-70.13 -65.87)" />
    <path
        d="M266.93,273.74c-4.61,0-8.93.08-13.24-.08A3.56,3.56,0,0,1,251.5,272a4.92,4.92,0,0,1-.41-2.51q0-31,0-61.93a15,15,0,0,1,.18-1.59h15.66Z"
        transform="translate(-70.13 -65.87)" />
    <path d="M215.47,273.51V222.12h15.14v51.39Z" transform="translate(-70.13 -65.87)"
    />
</svg>