<svg id="Layer_1" data-name="Layer 1" xmlns="http://www.w3.org/2000/svg" viewBox="0 0 221.01 221.18">
    <title>Search</title>
    <path
        d="M232.19,215.24c3.1,3,6.22,6,9.27,9.06q22,22,44.07,44c4.16,4.12,6.12,8.82,4.62,14.58s-5.75,9-11.45,10.05c-4.86.91-8.77-1.39-12.09-4.7Q248.79,270.49,231,252.7c-5.35-5.35-10.76-10.65-16-16.08-1.6-1.65-2.68-2-4.82-.58a85.42,85.42,0,0,1-41.38,15c-33.5,3-60.43-9.32-81-35.54-9.67-12.32-15-26.59-17.22-42.17-3.65-25.24,3.35-47.62,18.59-67.28,14-18.11,32.88-29.16,55.74-32.86,22.43-3.63,43.45.38,62.61,12.53,22.51,14.27,36.38,34.82,40.71,61.1,3.93,23.82-.81,46.13-14.73,66.19C233.09,213.66,232.74,214.32,232.19,215.24Zm-10.35-53.63c.84-33.55-27.29-62.06-61.62-62.34C124.4,99,98,128.36,97.25,159.56c-.86,36.88,27.8,63.72,60.13,64.75C193.87,225.47,222.92,195.75,221.84,161.61Z"
        transform="translate(-69.64 -71.95)" />
</svg>