<?xml version="1.0" encoding="UTF-8"?>
<svg id="Layer_2" data-name="Layer 2" xmlns="http://www.w3.org/2000/svg" viewBox="0 0 224.76 300.04">
  <defs>
  </defs>
  <g id="Layer_1-2" data-name="Layer 1">
    <g>
      <path class="cls-1"
        d="m199.57,292.28c-.47,2.09-1.64,3.76-3.11,5.25-.42.32-.84.65-1.26.97-2.33,1.43-4.91,1.54-7.55,1.54-52.18-.02-104.36-.02-156.53,0-2.29,0-4.43-.34-6.39-1.56-.67-.57-1.34-1.13-2.02-1.7-1.78-2-2.79-4.3-2.79-7.01.01-.46.04-.91.04-1.37,0-25.84,0-51.67,0-77.51,0-.87-.03-1.75-.04-2.62-.02-1.62-.71-3.07-1.27-4.53-2.26-5.89-4.57-11.76-6.86-17.63-2.99-7.64-6.03-15.25-8.95-22.91-.79-2.07-1.61-4.12-2.41-6.18-1.18-3.06.31-4.95,1.96-6.22,3.74-2.87,7.61-5.59,11.34-8.47,1.78-1.37,3.53-2.79,5.38-4.07.53-.37.77-1.03.84-1.68.04-.33,0-.67,0-1,0-40.12.01-80.25-.04-120.37,0-2.07-.18-4.16.09-6.2.42-3.24,1.88-5.85,4.94-7.51,1.47-.8,3-1.02,4.54-1.4.67-.02,1.33-.06,2-.06C83.87.02,136.26.03,188.65,0c.96,0,1.85.46,2.81.23.62.47,1.42.28,2.08.58,3.6,1.63,5.68,4.34,6.2,8.33.26,1.99.2,3.97.2,5.95.01,40.4.02,80.81-.02,121.21,0,1.08.32,1.84,1.13,2.43,3.94,2.9,7.69,6.06,11.53,9.09,3.45,2.72,6.87,5.5,10.29,8.28,1.55,1.26,2.11,2.96,1.82,4.87-.59,3.88-1.47,7.71-2.14,11.57-.48,2.72-.93,5.46-1.41,8.19-.66,3.79-1.61,7.53-2.14,11.33-.61,4.43-1.56,8.8-2.33,13.19-.66,3.79-1.06,7.65-2.23,11.34-.71,2.22-2.12,3.19-4.49,3.19-3.12,0-6.18-.59-9.26-.98-.5-.06-.82-.06-.75.57.03.29,0,.58,0,.87,0,22.78,0,45.57.02,68.35,0,1-.42,1.94-.22,2.94-.13.23-.42.42-.19.75Zm-130.23-69.68s-.07.07-.07.07c-.86.87-1.71,1.74-2.57,2.61-.65.47-1.19,1.06-1.7,1.68-.19.19-.37.38-.56.57-.08.08-.17.17-.25.25-.9.77-1.75,1.58-2.49,2.5-.65.47-1.19,1.06-1.7,1.68-1.37.84-2.18,2.24-3.3,3.32-.65.47-1.19,1.06-1.7,1.68-.19.19-.37.38-.56.57-.08.08-.17.17-.25.25-.9.76-1.75,1.58-2.49,2.5-.65.47-1.19,1.06-1.7,1.68-.19.19-.37.38-.56.57h0c-.99.84-1.92,1.75-2.74,2.75-1.17,1.16-2.34,2.32-3.52,3.48-.42.24-.84.48-1.26.73-1.4.64-2.8.6-4.21.03-.44-.36-.88-.71-1.33-1.07-.26-.39-.52-.78-.78-1.17-.23-.48-.47-.96-.7-1.45-.04-.09-.08-.18-.13-.26-.14-.53-.2-1.1-.57-1.55-.2-.61-.26-1.27-.75-1.75-.07-.74-.36-1.38-.82-1.95-.54-2.19-1.46-4.22-2.33-6.27-.41.15-.38.33-.37.49.01,10,.03,19.99.04,29.99.06.96.81.47,1.19.47,52.51.03,105.02.02,157.53.05,1.02,0,1.49-.2,1.19-1.27.01-.12.04-.25.04-.37-.09-12.79.17-25.57-.12-38.36-.05-2.3.09-4.6.11-6.9,0-.3.26-.8-.36-.86-2.22-.24-4.36-.99-6.61-1.01-.88-.54-1.85-.08-2.76-.26-1.04-.34-2.11-.49-3.21-.48-.48,0-.83.21-1.19.55-5.99,5.83-11.73,11.92-17.84,17.64-3.18,2.98-6.22,6.11-9.15,9.35-1.66,1.84-4.33,2.69-6.92.88-3.6-2.53-7.29-4.93-10.96-7.37-4.31-2.87-8.64-5.71-12.96-8.57-.35-.38-.73-.69-1.27-.74-.19-.42-.57-.61-.97-.76-.67-.65-1.5-1.05-2.29-1.5-.24-.16-.49-.32-.73-.48-.59-.39-1.19-.78-1.78-1.17-.91-.61-1.83-1.22-2.74-1.84-.25-.17-.5-.34-.75-.5-.43-.22-.72-.69-1.25-.75-.4-.68-1.17-.83-1.75-1.24-.5-.33-1-.67-1.5-1-.37-.53-1.01-.66-1.5-1-.41-.27-.72-.69-1.24-.77-.45-.61-1.16-.83-1.76-1.23-.25-.16-.5-.33-.74-.49-.59-.39-1.17-.79-1.76-1.18-.92-.61-1.83-1.22-2.75-1.82-.25-.17-.5-.33-.75-.5-.41-.26-.71-.7-1.24-.77-.4-.68-1.11-.91-1.75-1.24-.56-.58-1.28-.95-1.96-1.37-.38-.22-.73-.52-1.14-.66-.65-.22-1.39-.6-1.87.31-1.49,1.55-2.98,3.11-4.47,4.66-.19.19-.37.38-.56.57-.08.08-.17.17-.25.25-.74.59-1.41,1.25-2,2-.65.51-1.25,1.09-1.75,1.75-1.33,1.17-2.58,2.42-3.75,3.75-.65.47-1.19,1.06-1.7,1.68-.22.21-.45.43-.67.64Zm46.84-26.59h0c-1.24.08-2.36.55-3.5.98-1.33.42-2.76.51-4.02,1.15-.75.21-1.54.31-2.19.8-.41.15-.92-.02-1.27.36-1.18-.04-2.2.68-3.36.76-1.39.41-2.77.84-4.17,1.21-.34.09-.66.15-.75.51-.08.36.25.48.49.63.59.39,1.18.76,1.77,1.15.96.71,1.88,1.47,2.98,1.97.6.59,1.23,1.14,2.03,1.45.49.29.98.58,1.47.87.18.28.42.46.77.45.31.61.92.8,1.47,1.06.43.49.99.8,1.54,1.12.22.11.44.21.65.32.44.52,1.02.84,1.6,1.18,1.82,1.18,3.65,2.36,5.47,3.55.44.63,1.19.78,1.78,1.19.48.33.95.65,1.43.98.36.4.78.72,1.31.85.17.26.33.54.71.49.48.59,1.15.89,1.79,1.25.48.31.96.61,1.43.92.25.41.73.5,1.07.78,1.99,1.29,3.98,2.58,5.97,3.86.43.29.86.57,1.28.86.32.21.65.42.97.63.44.43.95.74,1.5.99.42.45.93.77,1.49,1.03.35.42.79.7,1.28.92.05.28.28.24.47.25.47.59,1.14.9,1.77,1.25.51.46,1.08.82,1.73,1.05q1.16.95,2.58-.67c.87-.86,1.74-1.71,2.61-2.57.14-.13.27-.27.41-.4.6-.67,1.58-1.02,1.75-2.06l.04-.04c.53.26.57-.3.82-.5l.39-.39c.81-.81,1.62-1.62,2.42-2.43.19-.18.38-.37.57-.55.23-.23.46-.47.68-.7.08-.08.16-.16.25-.25.23-.23.46-.46.69-.68.18-.19.36-.38.55-.58,2.6-2.46,5.16-4.96,7.55-7.63h.02c.48-.19.79-.53.99-1h.02c.44-.11.62-.49.87-.8.18-.19.36-.39.54-.58l2.42-2.43c.14-.14.27-.28.41-.43.64-.34.87-1.07,1.43-1.48.34-.4,1.1-.25,1.25-.92.71-.33,1.45-.56,2.25-.54.74.03,1.49.06,2.23.09,1.63.55,3.37.26,5.02.66,1.02-.12,1.98.34,2.98.33.25.42.69.06,1,.24.11.31.32.18.51.12.59.09,1.11.53,1.75.31l.48.1c.29.37.67.15,1.02.15.33.03.65.07.98.1,1.05.22,2.1.46,3.18.45,1.05-.01,2.08.18,3.09.45.25-.01.5-.03.75-.04,1.48.36,2.96.75,4.5.76.24.04.49.07.73.11.19.35.5.17.77.16,1.31.22,2.46.19,2.47-1.6,0-.12,0-.24,0-.36.34-1.41.81-2.81,1-4.24.31-2.39.73-4.75,1.2-7.1.33-1.63.8-3.23.78-4.91.08-.5.45-.95.25-1.5.65-2.21,1.06-4.46,1.26-6.75-.11-.53.44-.95.26-1.5.14-1.44.81-2.78.8-4.24.43-.27.19-.66.18-1.01.56-1.19.43-2.51.74-3.75.1-.83.21-1.67.31-2.5.31-.45.39-.97.44-1.5.29-1-.21-1.12-1.01-.91-.23.06-.46.14-.69.21-.25.08-.5.16-.75.25-1.67.5-3.33,1-5,1.5-1.09.32-2.22.5-3.25,1.02-.2-.02-.42-.15-.51.16-1.63.4-3.31.68-4.81,1.49-.58.12-1.17.18-1.69.51-1.05.06-2.04.37-2.99.79-1.25.35-2.5.69-3.75,1.04l-2.5.75c-.44.33-1.1.02-1.5.5-1.55.34-3.05.81-4.52,1.4-.49.12-.99.24-1.48.36-1.17.33-2.33.66-3.5.99-1.13.51-2.42.56-3.51,1.18-.7.04-1.37.17-2,.5-.42.17-.83.34-1.25.5-1.89.3-3.73.81-5.49,1.58-.52.07-1.04.17-1.5.43-1.16-.04-2.13.66-3.25.81-1,.33-2,.67-3,1-.58.16-1.22.13-1.75.5-.78.17-1.55.33-2.25.74-1.83.24-3.51.98-5.25,1.51-.49-.08-.87.2-1.26.43-1.58.17-3.04.71-4.49,1.32-.67.17-1.33.34-2,.5-.67.17-1.33.33-2,.5-1.26.64-2.7.72-4,1.25-.92.3-1.85.61-2.77.91-.58.17-1.16.34-1.75.51-1.82.27-3.54.9-5.23,1.57-.38-.1-.71-.02-1,.25-1.04.19-2.07.43-3.02.9-.74.2-1.49.4-2.23.6-.18-.06-.23.06-.27.19Zm3.04-25.76c-.07-.19-.21-.22-.39-.22-6.08,0-12.15.01-18.23-.02-.75,0-.65.42-.65.87,0,6.16.01,12.32-.01,18.48,0,.98.23,1.04,1.15.73,2.22-.75,4.49-1.37,6.74-2.02,3.44-.99,6.87-1.97,10.28-3.04,1.91-.6,1.9-.61,1.8-2.51.01-3.7.03-7.39.04-11.09,0-.52-.03-1.08-.73-1.19Zm-89.22,119.28c.11,1.03.9.47,1.32.47,51.84.03,103.68.03,155.52.03q3.25,0,3.08-3.25v-2.75c0-1.83,0-3.67,0-5.5.01-.62.04-1.25.04-1.87q0-1.63-1.62-1.63c-52.29,0-104.58,0-156.87,0-.25,0-.5.03-.75,0-.6-.08-.77.16-.76.76.04,4.58.04,9.16.05,13.75Zm98.95-127.48c.78,1.79,1.05,3.66,1.03,5.61-.05,4.2,0,8.41.02,12.62-.24.96.22,1.16,1.04.95.23-.06.45-.16.67-.24,2-.41,3.9-1.22,5.88-1.68,2.45-.58,2.47-.5,2.33-3.03v-6.75c0-1.08,0-2.17,0-3.25-.06-2,.43-3.79,1.98-5.17.19-.03.3-.13.34-.31.91-.26,1.82-.53,2.72-.79,9.92,0,19.83,0,29.75,0,.68.4,1.48.35,2.21.55.04.14.11.25.28.19.24.12.42.39.75.31.33.33.67.67,1,1,.56,1.19.94,2.45.98,3.75.03.87.39.79,1.01.63,2.92-.73,5.73-1.85,8.69-2.43.27-.05.31-.23.29-.45,0-1.26,0-2.52,0-3.78,0-.42,0-.83,0-1.25.01-.37.04-.75.04-1.12,0-47.67,0-95.34,0-143.01,0-.37-.03-.75-.04-1.12.01-.5.04-1,.04-1.5q0-1.75-1.75-1.75c-52.27,0-104.55,0-156.82-.03-1.22,0-1.46.3-1.46,1.48.03,49.94.03,99.88.03,149.82,0,.5.03,1,0,1.5-.04.51.12.82.61,1.08,2.27,1.21,4.51,2.5,6.78,3.72,2.6,1.39,2.67,1.37,2.61-1.67-.06-3.59,1.95-5.7,5.51-5.94.42,0,.83,0,1.25,0h26.75c.25,0,.5,0,.75,0,1.28.22,2.52.56,3.73,1.05.26.24.52.47.78.71.76,1.54,1.24,3.16,1.24,4.89,0,7.71.05,15.42-.04,23.12-.02,1.48.38,2.38,1.78,2.8.34.22.68.43,1.01.65,1.54,1.08,3.14,1.78,5,.78.47.15.82,0,1.05-.44,1.3.17,1.2-.76,1.2-1.56,0-8.86,0-17.72,0-26.58,0-1.83.69-3.33,2.19-4.42.76-.56,1.71-.66,2.56-.99.25.01.5.03.74.04,10.09.12,20.17-.25,30.26.2.75.27,1.49.55,2.24.82.33.33.67.67,1,1Zm-114.14,4.15c-.12.48-.1.77.04,1.11.8,1.92,1.55,3.86,2.31,5.8,1.3,3.31,2.59,6.62,3.89,9.94,1.53,3.93,3.07,7.87,4.59,11.8,1.3,3.36,2.58,6.72,3.87,10.08,1.19,3.1,2.36,6.22,3.57,9.31,1.51,3.85,3.06,7.68,4.57,11.53,1.23,3.13,2.39,6.28,3.63,9.41.21.53.59.87,1.21.24,1.37-1.39,2.83-2.68,4.21-4.06,5.79-5.76,11.56-11.53,17.33-17.31,4.26-4.26,8.57-8.48,12.78-12.97-20.68-11.63-41.28-23.22-61.99-34.87Zm45.17,3.83c-3.04,0-6.08,0-9.12,0-.4,0-.95-.22-.92.59.04,1.25.03,2.5.01,3.75,0,.39.17.51.51.69,2.86,1.55,5.69,3.14,8.52,4.73,3.33,1.87,6.67,3.73,9.99,5.62.27.16.49.56.83.4.35-.17.15-.59.15-.9.02-4.62-.02-9.24.04-13.86.01-.93-.31-1.06-1.13-1.05-2.96.05-5.91.02-8.87.02Zm108.05.52c-.44-.38-.83-.51-1.3-.51-5.36,0-10.72,0-16.09-.03-.55,0-.71.16-.7.7.03,1.37.03,2.74,0,4.11-.01.64.25.88.8.62,1.47-.69,3.07-.97,4.61-1.41,4.18-1.17,8.26-2.69,12.67-3.5Zm31.93-20.26c0,3.47,0,6.66,0,9.85,0,.57.15.78.72.55,2.44-1.02,5.1-1.36,7.56-2.34,1-.4.82-.74.21-1.24-2.75-2.22-5.51-4.44-8.48-6.83Zm-180,7.58c0-2.55-.01-4.91,0-7.26,0-.87-.45-.62-.82-.33-1.49,1.14-2.96,2.31-4.44,3.47-.58.45-.73.8.08,1.23,1.67.89,3.31,1.85,5.18,2.9Zm10.52,76.01c-.08-.15-.06-.37-.29-.32-.08.02-.19.14-.2.23-.02.15,0,.35.23.3.09-.02.16-.13.26-.21Z" />
      <path class="cls-1"
        d="m139.92,72.27c0-.17,0-.33,0-.5,0-.33,0-.67,0-1v-2.75c.01-8.39.04-16.78.04-25.18,0-5.52-.02-11.05-.04-16.57.1-.99.2-1.98.3-2.97.52-.95,1.22-1.75,2-2.5.75-.27,1.49-.55,2.24-.82,2.41.01,4.82,0,7.23.04,8.01.12,16.01-.26,24.02.21,3.3.92,4.16,2.12,4.19,5.96.14,15.94.05,31.88.06,47.83,0,1.42-.55,2.68-1.02,3.96-.5.42-.99.84-1.49,1.26-1.14.42-2.28.79-3.52.78-9.51,0-19.02-.01-28.53.02-.75,0-1.43-.35-2.17-.28-1.2-.79-2.48-1.5-3.01-2.98-.01-.03-.15-.02-.24-.03.22-1-.14-1.99-.07-2.99,0-.5,0-1,0-1.5Zm10.04-22.28v17.99q0,2.04,2.09,2.04c5.33,0,10.66,0,15.99,0,1.72,0,1.92-.22,1.92-1.88,0-12.33-.01-24.65.02-36.98,0-.91-.17-1.17-1.14-1.17-5.87.05-11.74.05-17.61,0-1,0-1.31.18-1.3,1.26.06,6.25.03,12.49.03,18.74Z" />
      <path class="cls-1"
        d="m39.97,75.76c0-14.99.03-29.98-.05-44.97-.01-1.92.11-3.83.08-5.74-.03-2.16,1.3-3.85,3.36-4.56.46-.16.91-.33,1.36-.49.25.01.5.03.74.04,10.09.12,20.17-.25,30.26.2.42.05.75.43,1.21.32.04.14.11.25.28.19.24.12.42.39.75.31.33.33.66.65.99.98.79,1.78,1.04,3.65,1.04,5.6-.03,15.36-.02,30.71,0,46.07,0,1.12-.21,2.19-.58,3.22-.85,2.39-2.96,3.04-5.09,3.06-9.78.1-19.56.05-29.34.03-1.22,0-2.27-.53-3.22-1.28-.19-.14-.29-.59-.68-.29l-.03-.03c.18-.7-.63-1.01-.64-1.64-.12-.35-.07-.77-.43-1.02Zm29.99-25.74c0-5.96,0-11.92,0-17.87,0-.66.2-1.5-.12-1.94-.33-.46-1.17-.09-1.8-.06-.34.02-.79-.11-1.19-.12-5.25-.01-10.5.02-15.75-.03-.93,0-1.16.21-1.16,1.15.04,12.58.04,25.17,0,37.75,0,.93.21,1.16,1.15,1.15,5.92-.05,11.83-.05,17.75,0,.94,0,1.15-.23,1.15-1.16-.05-6.29-.02-12.58-.02-18.87Z" />
      <path class="cls-1"
        d="m74.21,89.98c3.74.24,5.74,2.33,5.75,6.11.01,15.99,0,31.98,0,47.96,0,1.42-.5,2.69-1.03,3.96-1.38,1.44-3.13,1.99-5.06,2-9.39.03-18.78.04-28.17.05-1.13.12-2.16-.37-3.24-.58-.77-.89-1.72-1.63-2.24-2.73-.47-2.17-.27-4.37-.27-6.55-.02-14.91-.01-29.83,0-44.74,0-1.77.54-3.34,2.08-4.4,1.02-.71,2.19-1.01,3.42-1.09,9.58,0,19.17,0,28.75,0Zm-24.25,30.04c0,6.29.02,12.58-.02,18.87,0,.93.21,1.16,1.15,1.15,5.92-.05,11.83-.05,17.75,0,.94,0,1.15-.22,1.15-1.15-.03-12.58-.03-25.16,0-37.74,0-.93-.21-1.16-1.15-1.15-5.92.05-11.83.05-17.75,0-.94,0-1.16.22-1.15,1.15.05,6.29.02,12.58.02,18.87Z" />
      <path class="cls-1"
        d="m139.92,96.52c.02-1.27.07-2.54.57-3.74.16-.24.32-.48.48-.71l.93-.97c.19-.03.31-.13.35-.32.97-.34,1.92-.75,2.97-.8,9.75,0,19.5,0,29.25,0,.86.01,1.72.02,2.46.55.04.14.11.25.28.19,2.28,1.02,2.7,3.15,2.71,5.21.07,15.97.04,31.94.03,47.91,0,1.26-.46,2.44-.75,3.64-.56.72-1.27,1.28-1.99,1.82-.92.25-1.83.5-2.75.75-.25,0-.5,0-.75,0-9.18-.01-18.36-.04-27.54-.03-1.19,0-2.34-.09-3.45-.54-1.12-.86-2.2-1.76-2.55-3.22-.31-.98-.14-2-.25-3,0-.25,0-.5,0-.75.01-3.03.04-6.07.04-9.1,0-11.59,0-23.19,0-34.78,0-.46-.03-.91-.04-1.37,0-.25,0-.5,0-.75Zm30.04,23.5c0-6.29-.02-12.58.02-18.87,0-.93-.21-1.16-1.15-1.15-5.92.05-11.83.05-17.75,0-.94,0-1.15.22-1.15,1.15.03,12.58.03,25.16,0,37.74,0,.93.21,1.16,1.15,1.15,5.92-.05,11.83-.05,17.75,0,.94,0,1.16-.22,1.15-1.15-.05-6.29-.02-12.58-.02-18.87Z" />
      <path class="cls-1"
        d="m90.18,23.77c.64-2.3,2.38-3.29,4.53-3.79,2.24.01,4.49,0,6.73.04,8.09.12,16.18-.27,24.27.21,3.29.92,4.16,2.12,4.19,5.96.14,15.82.06,31.64.05,47.46,0,1.51-.42,2.94-1.01,4.32-.5.42-.99.84-1.49,1.26-1.14.42-2.29.79-3.53.79-9.42,0-18.83-.04-28.25.02-3.27.02-5.73-2.18-5.72-5.77.03-14.21.04-28.42-.02-42.62-.01-2.46.11-4.91.05-7.37.25-.1.26-.29.2-.5Zm10.28,46.21c6.26.01,12.52.01,18.77.06.91,0,.75-.48.69-1.02.01-.12.04-.25.04-.37,0-12.57,0-25.14.02-37.7,0-.8-.23-.94-.97-.94-5.95.03-11.9.04-17.85,0-.97,0-1.22.23-1.22,1.21.04,12.03.02,24.05.02,36.08,0,.75.01,1.5,0,2.25,0,.37.11.55.5.44Z" />
      <path class="cls-1"
        d="m127.45,149.24c-.91.27-1.83.54-2.74.82-.33,0-.67,0-1,0-8.35-.01-16.69-.02-25.04-.05-2.08,0-4.18.22-6.2-.53-.77-.89-1.71-1.64-2.24-2.73-.5-2.54-.26-5.12-.27-7.68-.02-14.54-.01-29.08,0-43.62,0-1.73.53-3.25,1.98-4.33.96-.72,2.09-1.01,3.27-1.15,9.58,0,19.17,0,28.75,0,1.38.14,2.69.55,3.98,1.05.21.18.41.37.62.55.62,1.17.98,2.3,1.08,3.73.8,11.38.1,22.76.31,34.14.09,5.08,0,10.17,0,15.25,0,1.21-.71,2.19-1,3.31-.5.41-.99.82-1.49,1.23Zm-27.49-29.26c0,6.33,0,12.66-.01,19,0,.73.07,1.08.97,1.07,6.04-.05,12.08-.04,18.12,0,.81,0,.94-.24.94-.98-.02-12.71-.02-25.41,0-38.12,0-.81-.24-.94-.98-.94-6,.03-12,.04-18,0-.91,0-1.07.26-1.07,1.11.04,6.29.02,12.58.02,18.87Z" />
    </g>
  </g>
</svg>