<svg id="Layer_1" data-name="Layer 1" xmlns="http://www.w3.org/2000/svg" viewBox="0 0 199.15 221.37">
    <title>Date</title>
    <path
        d="M273,112.29H88.59v78.39c0,4.39-1.27,6.64-3.76,6.29-3.79-.54-3.37-3.56-3.37-6.28,0-36.85.16-73.71-.1-110.57-.07-10.55,7.48-19.68,19.35-19.61,3.24,0,6.48,0,10.11,0-.19-4.93,1.12-9.4,5.32-12.06A16.4,16.4,0,0,1,124,46.09c7.22-.27,10.21,3.21,13,14.3.69,0,1.44.12,2.18.12h28.7c.05-4.76,1.09-9.21,5.1-11.74a18.12,18.12,0,0,1,8.65-2.66c7-.26,11.22,4.74,12.49,14.21h31c.25-4.76,1.42-9.22,5.7-12.21,2.92-2,6.16-2.42,9.55-2.07,6.11.64,10.34,6.14,10.87,14.8,4.42,0,8.94-.36,13.38.07a17.33,17.33,0,0,1,15.71,17.17c.19,11,.08,22,.08,33.07,0,45.29-.22,90.58.14,135.87.1,12.16-8.95,20.32-20.42,20.28q-79.44-.3-158.89,0c-10.86,0-20.16-7.86-19.78-19.54.25-7.88.08-15.78,0-23.67,0-2.61.75-4.73,3.6-4.72,2.65,0,3.53,2.11,3.54,4.53,0,3-.06,6.06,0,9.08.18,7.54,4.65,12,12.21,12q63.56.13,127.11.16c3.47,0,4.85-1.39,4.88-4.91,0-5.52.31-11-.06-16.54-.59-8.83,6.2-19.13,19-19.27,5.62-.06,11.24,0,16.86,0,3.51,0,4.59-1,4.6-4.36q0-43.44,0-86.9A5.31,5.31,0,0,0,273,112.29ZM167.83,67.86H136.74c-.14,2.51-.17,4.87-.42,7.2A12.74,12.74,0,0,1,110.93,74c-.06-2,0-4,0-6.28-3.63,0-6.86,0-10.08,0C93,67.86,88.66,72.23,88.6,80c-.06,7.46,0,14.92,0,22.37a20,20,0,0,0,.29,2.49H273c0-9.61.36-19.09-.16-28.53-.23-4.19-3.59-7.35-7.79-8.06-4.51-.77-9.18-.54-14-.76,0,2.35,0,4.17,0,6a13,13,0,0,1-12.18,12.76A12.63,12.63,0,0,1,225.59,75.2c-.35-2.4-.37-4.86-.55-7.33H194.2c-.31,3.07-.11,6.12-1,8.79a13.11,13.11,0,0,1-12.52,9.48C172.47,86.36,168.89,81.06,167.83,67.86ZM273.09,217c-10.19,10.21-19.89,19.91-29.57,29.63a18.77,18.77,0,0,1-13.91,5.75q-61.44-.09-122.88-.11c-6.13,0-12.32.37-17.69-3.56a3.81,3.81,0,0,0-.29.92C89,255.77,94,260,101.16,260q65,0,130,0c10,0,20.1,0,30.15,0,6.12,0,11.53-4.06,11.67-9.4C273.29,239.64,273.09,228.65,273.09,217Zm-33,21.75,27-27.09h-2.15c-4.75,0-9.51-.22-14.24.09-5.55.36-10.26,4.32-10.56,9.17C239.76,227,240,233.07,240,238.71Zm3.83-172.82V59.42c0-.21,0-.43,0-.64-.24-3.32-2.41-5.55-5.45-5.63-3.26-.09-5.67,1.77-5.84,5.14-.25,5.06-.24,10.14,0,15.2a5.61,5.61,0,0,0,5.86,5.62c3-.17,5.35-2.71,5.45-6.1C243.92,70.64,243.87,68.27,243.87,65.89Zm-68.66-.35c0,2.59-.11,5.19,0,7.77a5.91,5.91,0,0,0,5.44,5.8,5.66,5.66,0,0,0,5.91-5.27,146.09,146.09,0,0,0,0-15.52c-.19-3.5-2.79-5.37-6.18-5.15-3,.19-5,2.51-5.17,5.9C175.14,61.22,175.2,63.38,175.21,65.54Zm-57.14.61c0,2.37-.07,4.74,0,7.11a5.81,5.81,0,0,0,5.64,5.84,5.48,5.48,0,0,0,5.53-5.55c.16-5.06.16-10.13,0-15.19-.14-3.43-2.39-5.27-5.69-5.2a5.39,5.39,0,0,0-5.44,5.55C118,61.19,118.07,63.67,118.07,66.15Z"
        transform="translate(-81.36 -45.94)" />
    <path
        d="M203,201c2.26,0,4.53,0,6.8,0,5.05.07,7.86,2.6,8.06,7.64.19,4.64.18,9.29,0,13.93-.18,4.84-3.29,7.68-8.13,7.73q-6.65.06-13.28,0c-4.78-.05-7.76-2.75-7.91-7.47-.16-5-.16-9.94,0-14.9.17-4.37,2.89-6.82,7.31-6.92C198.22,200.93,200.6,201,203,201Zm-7.08,7.37v14.5h14.65v-14.5Z"
        transform="translate(-81.36 -45.94)" />
    <path
        d="M203.05,152.59c-2.38,0-4.76,0-7.13,0-4.5-.12-7.18-2.44-7.36-6.85-.21-5.18-.18-10.37,0-15.55a7,7,0,0,1,7.14-6.89c4.85-.17,9.72-.16,14.58,0,4.51.13,7.42,3.23,7.56,8,.14,4.53.15,9.08,0,13.61-.16,5-3,7.6-8,7.7C207.58,152.63,205.31,152.59,203.05,152.59Zm-7.21-22v14.65h14.63V130.58Z"
        transform="translate(-81.36 -45.94)" />
    <path
        d="M203,191.38c-2.49,0-5,.05-7.46,0-3.95-.1-6.79-2.56-6.95-6.57-.23-5.39-.23-10.81,0-16.2.17-3.88,3.15-6.39,7.12-6.44,4.64-.06,9.29,0,13.94,0,5,0,7.93,2.61,8.15,7.59.21,4.74.21,9.51,0,14.26s-3.15,7.34-8,7.38C207.57,191.4,205.3,191.39,203,191.38Zm-7.18-22V184h14.63V169.4Z"
        transform="translate(-81.36 -45.94)" />
    <path
        d="M158.72,152.59c-2.37,0-4.75,0-7.13,0-4.56-.14-7.41-2.87-7.54-7.49s-.14-9.51,0-14.25a7.46,7.46,0,0,1,7.64-7.57c4.74-.13,9.5-.13,14.25,0,4.41.12,7.27,3,7.37,7.33.12,5,.12,9.94,0,14.9-.1,4.39-2.74,6.93-7.14,7.07C163.69,152.65,161.21,152.59,158.72,152.59Zm7.31-22H151.38v14.65H166Z"
        transform="translate(-81.36 -45.94)" />
    <path
        d="M247.14,152.56c-2.48,0-5,.09-7.45,0a6.72,6.72,0,0,1-6.85-7c-.07-4.86-.05-9.72,0-14.58,0-4.56,2.79-7.54,7.35-7.68,4.75-.15,9.51-.13,14.26,0s7.56,3.16,7.61,7.84.05,9.3,0,13.94-2.89,7.39-7.45,7.52c-2.48.07-5,0-7.46,0Zm-7-22v14.68h14.59V130.58Z"
        transform="translate(-81.36 -45.94)" />
    <path
        d="M173.33,215.48c0,2.59.09,5.19,0,7.77a7,7,0,0,1-7,7c-5,.14-9.93.13-14.9,0-4.23-.11-7.18-3.1-7.33-7.48-.16-4.86-.17-9.72,0-14.58.15-4.39,3.1-7.13,7.5-7.19q7.29-.11,14.58,0c4.36.07,7,2.66,7.17,7C173.42,210.51,173.33,213,173.33,215.48Zm-22,7.45H166V208.42H151.38Z"
        transform="translate(-81.36 -45.94)" />
    <path
        d="M232.82,176.76c0-2.6-.06-5.19,0-7.78a6.88,6.88,0,0,1,6.8-6.8c5.18-.11,10.37-.12,15.55,0a7,7,0,0,1,6.84,7.17q.15,7.46,0,14.9a7,7,0,0,1-7.22,7.11q-7.45.1-14.9,0a6.9,6.9,0,0,1-7.08-7.15C232.78,181.73,232.82,179.24,232.82,176.76Zm21.89,7.37V169.49H240.19v14.64Z"
        transform="translate(-81.36 -45.94)" />
    <path
        d="M114.22,152.53c-2.59,0-5.19.11-7.78,0a6.78,6.78,0,0,1-6.53-6.69q-.16-7.77,0-15.56c.08-4,3.1-6.86,7.41-7,4.75-.14,9.51-.13,14.26,0s7.48,3.13,7.52,7.87,0,9.3,0,13.94-2.77,7.36-7.42,7.49c-2.49.07-5,0-7.46,0Zm7.46-7.25V130.6h-14.5v14.68Z"
        transform="translate(-81.36 -45.94)" />
    <path
        d="M173.34,176.89c0,2.49.08,5,0,7.46a6.9,6.9,0,0,1-7.22,7c-4.75.06-9.5,0-14.26,0-4.6,0-7.59-2.69-7.77-7.27-.19-5-.2-10,0-14.91.19-4.35,3.25-7,7.66-7,4.75,0,9.51-.05,14.26,0,4.25.05,7.1,2.74,7.29,7,.12,2.59,0,5.18,0,7.77ZM166,184.12V169.51H151.43v14.61Z"
        transform="translate(-81.36 -45.94)" />
    <path
        d="M114.45,164.07c2.59,0,5.18-.06,7.77,0a6.88,6.88,0,0,1,6.84,6.74q.18,7.77,0,15.54a7,7,0,0,1-7.08,6.91c-5,.11-9.94.1-14.9,0a7.06,7.06,0,0,1-7.19-7.15c-.08-5-.07-9.93,0-14.89a6.94,6.94,0,0,1,7.1-7.15C109.48,164,112,164.06,114.45,164.07Zm-7.3,21.84h14.56V171.47H107.15Z"
        transform="translate(-81.36 -45.94)" />
    <path
        d="M129.1,215.87c0,2.27,0,4.54,0,6.81-.07,4.38-2.83,7.43-7.15,7.56-5,.14-9.94.14-14.91,0A7.08,7.08,0,0,1,99.9,223c-.08-5-.07-9.94,0-14.91A6.9,6.9,0,0,1,107,201c5-.09,9.94-.09,14.9,0,4.37.07,7.08,2.94,7.16,7.41C129.14,210.9,129.1,213.39,129.1,215.87Zm-7.27-7.48H107.26v14.48h14.57Z"
        transform="translate(-81.36 -45.94)" />
    <path
        d="M89,209c-1.34.85-2.58,2.19-4,2.45-2.14.4-3.36-1.09-3.4-3.28,0-2.39,1.52-3.84,3.59-3.53,1.4.2,2.59,1.87,3.87,2.89Z"
        transform="translate(-81.36 -45.94)" />
</svg>