<svg id="Layer_1" data-name="Layer 1" xmlns="http://www.w3.org/2000/svg" viewBox="0 0 228.58 228.6">
    <title>Employee</title>
    <path
        d="M181,301q-54.81,0-109.6,0c-5.19,0-4.59.51-4.6-4.76,0-7.56.31-15.15-.09-22.69-.61-11.71,5.46-20,13.65-26.9,15.79-13.33,34.87-19.78,54.52-24.8,18.36-4.68,37-7.14,55.91-5.65,12,.94,24,3.36,35.8,5.76a144,144,0,0,1,38.5,13.76c8.71,4.58,16.91,9.95,23.09,17.81,4.15,5.27,6.94,11.16,7,18,0,8.65-.12,17.3.09,25.94.07,3-.91,3.56-3.68,3.56Q236.27,300.93,181,301Z"
        transform="translate(-66.66 -72.46)" />
    <path
        d="M123.89,129.48c-.68-31.31,25.45-55.22,52.71-56.9,36-2.21,61.48,26.28,61.43,56.55-.06,32.75-25.13,56.41-55,57.57C149.31,188,123.29,160.36,123.89,129.48Z"
        transform="translate(-66.66 -72.46)" />
</svg>