<svg id="Layer_1" data-name="Layer 1" xmlns="http://www.w3.org/2000/svg" viewBox="0 0 246.77 138.94">
    <title>Eye</title>
    <path
        d="M195.65,116.22c49.6,1.17,89.6,20.52,120.08,59.12,5,6.4,4.93,14.43-.33,21.17-20,25.62-45.31,43.81-76.67,52.37-51.3,14-98.27,4.7-139.58-29.27-8.35-6.87-15.4-15.4-22.55-23.6-5.36-6.13-5.11-14.1-.11-20.55q36-46.52,94-56.86c2.54-.45,5.1-.94,7.67-1.16C184.14,116.94,190.18,116.59,195.65,116.22Zm107.27,69.42c-56.59-73.56-164.14-67.27-213.39.06C140.64,255.22,249.23,257.41,302.92,185.64Z"
        transform="translate(-72.66 -116.22)" />
    <path
        d="M244.16,186.14c-.12,26.55-21.76,47.69-48.63,47.51C169,233.47,147.85,211.81,148,185c.12-25.85,22.31-47.58,48.4-47.38A48.23,48.23,0,0,1,244.16,186.14Zm-16.41-.29c-.07-17.77-14.34-32.06-31.82-31.86s-31.7,14.55-31.5,31.58c.21,18,14.08,31.8,31.88,31.75A31.46,31.46,0,0,0,227.75,185.85Z"
        transform="translate(-72.66 -116.22)" />
</svg>