<?xml version="1.0" encoding="UTF-8"?>
<svg id="Layer_2" data-name="Layer 2" xmlns="http://www.w3.org/2000/svg" viewBox="0 0 246.75 161.73">
  <g id="Layer_1-2" data-name="Layer 1">
    <path d="m243.07,73.7c-12.81-16.23-27.31-29.05-43.49-38.55l33.13-22.86-8.47-12.29-39.78,27.44c-18.53-8.08-39.02-12.33-61.47-12.86-5.47.37-11.51.72-17.49,1.22-2.57.22-5.13.71-7.67,1.16C59.16,23.85,27.83,42.81,3.83,73.82c-5,6.45-5.25,14.42.11,20.55,7.15,8.2,14.2,16.73,22.55,23.6,4.21,3.46,8.47,6.66,12.8,9.6l-31.7,21.87,8.48,12.29,37.16-25.63c34.47,18.72,72.3,22.2,112.84,11.14,31.36-8.56,56.67-26.75,76.67-52.37,5.26-6.74,5.33-14.77.33-21.17Zm-226.2,10.36C51.26,37.04,114.08,19.79,168.12,38.71l-13.2,9.11c-8.35-7.28-19.24-11.72-31.18-11.84-26.09-.2-48.28,21.53-48.4,47.38-.03,6.09,1.03,11.91,3.01,17.27l-24.73,17.06c-13.95-8.47-26.51-19.7-36.75-33.63Zm134.17-15.44c2.56,4.6,4.03,9.92,4.05,15.59,0,17.37-14.07,31.46-31.44,31.47-9.97.03-18.71-4.29-24.5-11.26l51.89-35.8Zm-58.49,22.21c-.49-2.21-.75-4.52-.78-6.9-.2-17.03,14.02-31.38,31.5-31.58,6.48-.07,12.52,1.84,17.55,5.19l-48.27,33.29Zm-23.95,34.67l17.05-11.77c8.68,11.07,22.07,18.18,37.22,18.28,26.87.18,48.51-20.96,48.63-47.51.06-9.22-2.48-17.85-6.93-25.2l19.79-13.66c17.12,8.7,32.86,21.41,45.9,38.36-39.2,52.4-107.67,65.38-161.66,41.5Z"/>
  </g>
</svg>