<svg id="Layer_1" data-name="Layer 1" xmlns="http://www.w3.org/2000/svg" viewBox="0 0 265.26 233.66">
    <title>Report</title>
    <path d="M292.45,271.48H259.67V84.61h32.76Q292.47,178,292.45,271.48Z"
        transform="translate(-51.23 -49.8)" />
    <path
        d="M212.36,112.09H245.2V267.53c0,4.56,0,4.27-4.53,3.81-4.17-.43-8.42-.14-12.63-.15-5.17,0-10.34,0-15.68,0Z"
        transform="translate(-51.23 -49.8)" />
    <path d="M165.64,151.84h32v119.4h-32Z" transform="translate(-51.23 -49.8)" />
    <path
        d="M151,174.48q0,33.36.1,66.72c0,6.37.06,12.74,0,19.11,0,3.51-.33,7-.52,10.87-7.35,0-14.34,0-21.33,0a60.44,60.44,0,0,0-7.35.55c-3.07.39-3.84-.17-3.84-3.36q0-46.81,0-93.62a4.24,4.24,0,0,1,.15-.84H150.5Z"
        transform="translate(-51.23 -49.8)" />
    <path d="M71.21,209.6h32.4V271H71.21Z" transform="translate(-51.23 -49.8)" />
    <path
        d="M52.16,49.8c.38.47,1,.9,1.11,1.43a19.29,19.29,0,0,1,.08,3.23v227H316.22l.27,1.15a15.4,15.4,0,0,1-3.52.84c-13.73.06-27.46,0-41.19,0l-216,0c-4.62,0-4.56,0-4.55-4.65q.1-100.86.18-201.72V50.26Z"
        transform="translate(-51.23 -49.8)" />
    <path d="M151,174.48l-.52-.54Z" transform="translate(-51.23 -49.8)" />
</svg>