<?xml version="1.0" encoding="UTF-8"?>
<svg id="Layer_2" data-name="Layer 2" xmlns="http://www.w3.org/2000/svg" viewBox="0 0 307.99 319.14">
  <g id="Layer_1-2" data-name="Layer 1">
    <path d="m.02,128.63c-.23-9.99,1.32-19.76,3.53-29.46,3.58-15.71,10.34-30,19.32-43.26,6.44-9.5,14.19-17.9,22.97-25.3,8.61-7.26,18.04-13.24,28.21-18.14,8.88-4.28,18.13-7.37,27.7-9.5C113.42.37,125.23-.53,137.16.29c12.34.85,24.31,3.44,35.89,7.69,7.96,2.92,15.52,6.71,22.78,11.12,12.82,7.79,23.85,17.61,33.24,29.23,10.71,13.25,18.52,28.11,23.36,44.46,2.14,7.25,3.54,14.66,4.39,22.19.6,5.25,1.2,10.49.9,15.77-.26,4.59-.87,9.17-1.21,13.76-.49,6.66-2.04,13.13-3.87,19.5-4.76,16.58-12.46,31.69-23.32,45.15-2.03,2.52-2,2.59.25,4.93,9.93,10.34,19.87,20.67,29.81,31,14.06,14.62,28.12,29.22,42.16,43.86,1.37,1.43,2.73,2.94,3.81,4.6,5.75,8.82,1.83,21.26-8.96,24.7-6.35,2.03-12.21.63-16.95-4.22-8.45-8.65-16.81-17.39-25.2-26.1-13.23-13.74-26.45-27.48-39.68-41.23-3.69-3.83-7.38-7.66-11.02-11.54-.65-.69-1.1-.71-1.88-.24-5.04,3.05-9.98,6.29-15.2,9.01-8.44,4.41-17.36,7.66-26.62,9.93-8.21,2.02-16.52,3.11-24.97,3.58-8.42.47-16.8.19-25.09-1.14-6.04-.97-12-2.54-17.91-4.16-12.77-3.5-24.43-9.48-35.36-16.82-10.45-7.01-19.6-15.53-27.54-25.28-9.2-11.3-16.27-23.85-21.31-37.5-3.02-8.18-4.96-16.66-6.34-25.29-.99-6.19-1.16-12.39-1.31-18.61ZM128.62,33.97c-10.94-.46-21.3,1.53-31.43,5.08-5.94,2.08-11.58,4.73-16.98,7.94-13.52,8.03-24.36,18.74-32.6,32.12-6.43,10.44-10.64,21.7-12.7,33.79-.98,5.72-1.44,11.46-1.36,17.24.1,7.41,1.08,14.7,2.88,21.91,2.98,11.96,8.14,22.85,15.33,32.82,6.61,9.17,14.61,16.91,24,23.15,11.14,7.42,23.27,12.4,36.57,14.62,9.22,1.54,18.46,1.66,27.69.83,6.81-.61,13.47-2.27,19.97-4.52,8.21-2.85,15.87-6.76,23.01-11.68,9.53-6.58,17.6-14.65,24.19-24.19,3.79-5.48,7.06-11.26,9.57-17.42,3.43-8.41,5.75-17.11,6.73-26.18.97-8.99.74-17.93-.75-26.81-1.67-9.97-4.94-19.45-9.69-28.38-7.38-13.86-17.6-25.23-30.54-34.11-9.7-6.67-20.34-11.32-31.8-14.02-7.31-1.72-14.73-2.5-22.07-2.18Z"/>
  </g>
</svg>